<svg xmlns="http://www.w3.org/2000/svg" width="16.719" height="20.072" viewBox="0 0 16.719 20.072">
  <g id="グループ_50" data-name="グループ 50" transform="translate(-178 -5320)">
    <path id="パス_7" data-name="パス 7" d="M399.631,449.359a8.3,8.3,0,0,0-3.936-3.663,6.954,6.954,0,0,1-7.978,0,8.292,8.292,0,0,0-3.936,3.663c-.984,1.75-.213,4.226,1.49,4.226h12.871C399.844,453.584,400.615,451.109,399.631,449.359Z" transform="translate(-205.346 4886.488)" fill="#4c5267"/>
    <path id="パス_8" data-name="パス 8" d="M408.355,379.786a5.262,5.262,0,0,0,5.262-5.263v-1.261a5.263,5.263,0,0,0-10.526,0v1.261A5.263,5.263,0,0,0,408.355,379.786Z" transform="translate(-222.092 4952)" fill="#4c5267"/>
  </g>
</svg>
