<svg xmlns="http://www.w3.org/2000/svg" width="25.516" height="20.028" viewBox="0 0 25.516 20.028">
  <path id="パス_6" data-name="パス 6" d="M403.45,377.734a3.532,3.532,0,0,0-.731-1.548,3.078,3.078,0,0,0-.24-.266,3.531,3.531,0,0,0-2.5-1.037H381.539a3.536,3.536,0,0,0-2.5,1.037,3.118,3.118,0,0,0-.24.266,3.488,3.488,0,0,0-.728,1.548,3.431,3.431,0,0,0-.069.688v12.949a3.521,3.521,0,0,0,.293,1.406,3.465,3.465,0,0,0,.744,1.1c.079.079.158.152.244.224a3.536,3.536,0,0,0,2.258.813h18.437a3.513,3.513,0,0,0,2.259-.816,3.022,3.022,0,0,0,.244-.221,3.537,3.537,0,0,0,.747-1.1v0a3.5,3.5,0,0,0,.29-1.4V378.422A3.643,3.643,0,0,0,403.45,377.734Zm-23.132-.533a1.71,1.71,0,0,1,1.221-.507h18.437a1.7,1.7,0,0,1,1.222.507,1.743,1.743,0,0,1,.155.181L391.69,385.8a1.419,1.419,0,0,1-1.863,0l-9.66-8.426A1.308,1.308,0,0,1,380.318,377.2Zm-.507,14.171V379.252l6.993,6.1-6.99,6.094A.507.507,0,0,1,379.811,391.371Zm20.166,1.728H381.539a1.7,1.7,0,0,1-.856-.227l7.374-6.427.689.6a3.064,3.064,0,0,0,4.026,0l.688-.6,7.372,6.427A1.708,1.708,0,0,1,399.976,393.1Zm1.729-1.728a.534.534,0,0,1,0,.076l-6.99-6.09,6.993-6.1Z" transform="translate(-378 -374.883)" fill="#4c5267"/>
</svg>
