<svg xmlns="http://www.w3.org/2000/svg" width="16" height="16" viewBox="0 0 16 16">
  <g id="グループ_33" data-name="グループ 33" transform="translate(-378 -369.735)">
    <path id="パス_12" data-name="パス 12" d="M391.829,371.72a9.548,9.548,0,0,0-11.583-.055,6.446,6.446,0,0,0-1.658,2.228,6.883,6.883,0,0,0-.588,2.832,7.489,7.489,0,0,0,.735,3.356,6.386,6.386,0,0,0,2.053,2.382c-.21.934-.5,2.269-.5,2.27a.849.849,0,0,0,.282.834h0a.748.748,0,0,0,.469.167.739.739,0,0,0,.365-.1l.012-.006.011-.007.4-.252,1.415-.884.666-.413c.185-.114.327-.2.38-.232l0,0,0,0a3.128,3.128,0,0,1,1.683-.486,9.792,9.792,0,0,0,5.348-1.408,5.821,5.821,0,0,0,1.931-2.083,6.9,6.9,0,0,0-1.425-8.142Zm.38,7.51a4.436,4.436,0,0,1-1.07,1.3,6.356,6.356,0,0,1-2.359,1.187,10.4,10.4,0,0,1-2.806.366,4.291,4.291,0,0,0-2.274.65h0c-.1.058-.316.192-.6.371-.413.256-.957.6-1.411.879.111-.5.239-1.076.335-1.5h0a1.076,1.076,0,0,0,.028-.235.858.858,0,0,0-.1-.4.8.8,0,0,0-.17-.218.976.976,0,0,0-.186-.129l-.036-.019,0,0a5.152,5.152,0,0,1-1.756-1.989,6.159,6.159,0,0,1-.6-2.765,5.545,5.545,0,0,1,.471-2.286,5.368,5.368,0,0,1,2.306-2.475,8.07,8.07,0,0,1,3.994-.956,7.452,7.452,0,0,1,5.077,1.684,5.572,5.572,0,0,1,1.158,6.539Z" fill="#323746"/>
  </g>
</svg>
