<svg xmlns="http://www.w3.org/2000/svg" width="25.675" height="19.97" viewBox="0 0 25.675 19.97">
  <g id="グループ_52" data-name="グループ 52" transform="translate(0 -5390)">
    <path id="パス_4" data-name="パス 4" d="M429.58,417.1a3.149,3.149,0,1,0,3.121,3.149A3.134,3.134,0,0,0,429.58,417.1Z" transform="translate(-416.459 4981.32)" fill="#262a38"/>
    <path id="パス_5" data-name="パス 5" d="M402.008,379.066h-2.94a1.667,1.667,0,0,1-1.52-.992l-.88-1.972a1.667,1.667,0,0,0-1.52-.991h-8.624a1.668,1.668,0,0,0-1.52.991l-.879,1.972a1.667,1.667,0,0,1-1.52.992h-2.94A1.674,1.674,0,0,0,378,380.747V393.4a1.674,1.674,0,0,0,1.667,1.681h22.342a1.674,1.674,0,0,0,1.667-1.681V380.747A1.674,1.674,0,0,0,402.008,379.066ZM390.838,392.51a5.833,5.833,0,1,1,5.782-5.832A5.807,5.807,0,0,1,390.838,392.51Z" transform="translate(-378 5014.889)" fill="#262a38"/>
  </g>
</svg>
