<svg xmlns="http://www.w3.org/2000/svg" width="32" height="32" viewBox="0 0 32 32">
  <g id="グループ_55" data-name="グループ 55" transform="translate(-24 -1125)">
    <circle id="楕円形_3" data-name="楕円形 3" cx="16" cy="16" r="16" transform="translate(24 1125)" fill="#fff"/>
    <g id="ビジネスマンのアイコン素材" transform="translate(32 1130)">
      <path id="パス_21" data-name="パス 21" d="M71.5,17.785a3.319,3.319,0,0,0-1.291-1.878,5.214,5.214,0,0,0-.87-.51c-.449-.213-.911-.376-1.336-.533a7.638,7.638,0,0,1-1.127-.487l-.034-.019a2.237,2.237,0,0,1-.3-.2,1.293,1.293,0,0,1-.3-.352,1.14,1.14,0,0,1-.141-.455,1.525,1.525,0,0,1-.019-.248,5.358,5.358,0,0,1,.116-1.062,4.079,4.079,0,0,0,.531-.781,8.545,8.545,0,0,0,.481-1.1,2.166,2.166,0,0,0,.3-.168,2.142,2.142,0,0,0,.619-.647,3.355,3.355,0,0,0,.42-1.067,1.608,1.608,0,0,0-.116-1.047,1.855,1.855,0,0,0-.253-.4c.051-.189.113-.442.168-.741a7.893,7.893,0,0,0,.14-1.43,5.256,5.256,0,0,0-.1-1.028,3.688,3.688,0,0,0-.233-.758,2.821,2.821,0,0,0-.714-1,2.941,2.941,0,0,0-1.125-.61,3.812,3.812,0,0,0-.485-.493,2.686,2.686,0,0,0-.436-.3,2.467,2.467,0,0,0-.692-.256,3.489,3.489,0,0,0-.73-.069c-.346,0-.71.035-1.112.074-.151.016-.279.034-.389.054-.166.03-.288.061-.388.08a1.15,1.15,0,0,1-.136.022.847.847,0,0,1-.131.009A1.551,1.551,0,0,1,61.6.363a5.194,5.194,0,0,1-.77-.173c-.105-.032-.2-.063-.268-.091-.036-.013-.066-.026-.091-.036L60.412.039a.324.324,0,0,0-.091-.032A.353.353,0,0,0,60.248,0a.4.4,0,0,0-.1.013.534.534,0,0,0-.061.021A.581.581,0,0,0,60,.078a1.485,1.485,0,0,0-.14.1,3.37,3.37,0,0,0-.273.239,4.537,4.537,0,0,0-.444.5,3.062,3.062,0,0,0-.2.29,2.027,2.027,0,0,0-.155.312,8.362,8.362,0,0,0-.427,1.481,6.872,6.872,0,0,0-.117,1.254,8.471,8.471,0,0,0,.171,1.6c0,.022,0,.042,0,.063,0,.041.006.085.012.131.006.067.016.137.021.195,0,.029.005.055.007.076a.188.188,0,0,1,0,.025v.006h0v.038l.083.366a1.908,1.908,0,0,0-.3.433,1.614,1.614,0,0,0-.136,1.091h0a3.727,3.727,0,0,0,.255.762,2.347,2.347,0,0,0,.564.78,2.059,2.059,0,0,0,.523.34,8.618,8.618,0,0,0,.48,1.1,4.037,4.037,0,0,0,.531.781,5.432,5.432,0,0,1,.116,1.064,1.517,1.517,0,0,1-.019.248h0a1.16,1.16,0,0,1-.08.328,1.122,1.122,0,0,1-.262.385,2.048,2.048,0,0,1-.44.323l-.138.074c-.147.075-.307.146-.478.216-.4.16-.846.312-1.3.493a7.389,7.389,0,0,0-1.02.488,4.155,4.155,0,0,0-.707.517,3.246,3.246,0,0,0-.808,1.141,4.241,4.241,0,0,0-.306,1.666.713.713,0,0,0,.052.26.963.963,0,0,0,.117.211,1.625,1.625,0,0,0,.35.339,4.246,4.246,0,0,0,1.015.521,12.6,12.6,0,0,0,2.634.622,29.776,29.776,0,0,0,4.149.259,31.311,31.311,0,0,0,3.688-.2,17.247,17.247,0,0,0,2-.35,9.407,9.407,0,0,0,1.1-.336,5.332,5.332,0,0,0,.621-.278,3.028,3.028,0,0,0,.36-.221,1.631,1.631,0,0,0,.38-.365.971.971,0,0,0,.118-.216.725.725,0,0,0,.046-.247A4.61,4.61,0,0,0,71.5,17.785Zm-8.857.036-2.209-3.043.084-.064a2.1,2.1,0,0,0,.332-.329l1.781.826-.381.634.589.623Zm-1.539-3.854a1.891,1.891,0,0,0,.14-.55,2.248,2.248,0,0,0,.023-.319,6.249,6.249,0,0,0-.15-1.3L61.1,11.7l-.067-.07a3.239,3.239,0,0,1-.492-.707,8.173,8.173,0,0,1-.49-1.148L60,9.625l-.153-.056a1.414,1.414,0,0,1-.729-.6,2.669,2.669,0,0,1-.33-.85.913.913,0,0,1,.08-.627,1.255,1.255,0,0,1,.228-.313,5.286,5.286,0,0,0,.339.479c.156.156.178-.211.1-.624-.137-.759.694-1.66.78-3.431,1.871.416,5.53-.379,5.53-.379a3.443,3.443,0,0,0,.663,1.74,8.3,8.3,0,0,1,.928,2.641s.081-.153.2-.357a1.173,1.173,0,0,1,.176.269.933.933,0,0,1,.091.4.9.9,0,0,1-.023.2,3,3,0,0,1-.206.62,1.705,1.705,0,0,1-.4.558,1.4,1.4,0,0,1-.455.269l-.153.056-.054.153a8.432,8.432,0,0,1-.491,1.15,3.239,3.239,0,0,1-.493.707l-.066.07-.021.094a6.19,6.19,0,0,0-.15,1.3,2.08,2.08,0,0,0,.023.319,1.867,1.867,0,0,0,.121.5.173.173,0,0,0,.01.022L63.44,15.05Zm3.084,4-.217-1.5.588-.623-.381-.636,1.611-.846a2.141,2.141,0,0,0,.142.162,2.447,2.447,0,0,0,.3.257Z" transform="translate(-55.014 0)" fill="#4b4b4b"/>
    </g>
  </g>
</svg>
