<svg xmlns="http://www.w3.org/2000/svg" width="20" height="17" viewBox="0 0 20 17">
  <g id="グループ_34" data-name="グループ 34" transform="translate(-378 -371.347)">
    <path id="パス_13" data-name="パス 13" d="M396.706,377.441l-8.12-5.565-.051-.034-.052-.032a3.189,3.189,0,0,0-3.414.065,2.817,2.817,0,0,0-1.229,2.973h-2.49a3.272,3.272,0,0,0-3.35,3.18v3.635a3.272,3.272,0,0,0,3.35,3.18h2.49a2.815,2.815,0,0,0,1.23,2.974,3.19,3.19,0,0,0,3.412.065l.052-.032.051-.034,8.117-5.563a2.883,2.883,0,0,0,0-4.813Zm-1.4,2.977-8.117,5.563a.7.7,0,0,1-.747-.014.618.618,0,0,1-.266-.662l.67-2.724h-5.5a.941.941,0,0,1-.965-.916v-3.635a.941.941,0,0,1,.965-.916h5.5l-.67-2.723a.618.618,0,0,1,.266-.663.7.7,0,0,1,.747-.014l8.117,5.563a.685.685,0,0,1,0,1.143Z" transform="translate(0 0)"/>
  </g>
</svg>
