<svg xmlns="http://www.w3.org/2000/svg" width="9.15" height="8.777" viewBox="0 0 9.15 8.777">
  <g id="グループ_40" data-name="グループ 40" transform="translate(0 0)">
    <path id="パス_14" data-name="パス 14" d="M387.15,372.853a.814.814,0,0,0-.039-.249h0a.815.815,0,0,0-.776-.565h-2.288l-.7-2.168a.815.815,0,0,0-1.552,0l.352.113-.352-.113-.7,2.168h-2.288a.815.815,0,0,0-.776.565h0a.815.815,0,0,0,.3.912h0l1.853,1.331-.713,2.166h0a.815.815,0,0,0,.294.914h0a.815.815,0,0,0,.961,0h0l1.84-1.348,1.84,1.348h0a.815.815,0,0,0,.96,0h0a.815.815,0,0,0,.295-.914l-.714-2.166,1.853-1.331h0A.815.815,0,0,0,387.15,372.853Zm-.771.061h0l-2.074,1.489a.369.369,0,0,0-.136.416l.8,2.424,0,.023a.075.075,0,0,1-.031.061h0a.075.075,0,0,1-.044.014.076.076,0,0,1-.045-.015h0l-2.058-1.508a.371.371,0,0,0-.437,0l-2.058,1.508a.075.075,0,0,1-.089,0,.076.076,0,0,1-.031-.061l0-.023h0l.8-2.424a.369.369,0,0,0-.136-.416l-2.074-1.489h0a.075.075,0,0,1-.031-.061l0-.023a.075.075,0,0,1,.072-.052h2.557a.37.37,0,0,0,.352-.257l.779-2.425a.075.075,0,0,1,.143,0l.779,2.425a.37.37,0,0,0,.352.257h2.558a.075.075,0,0,1,.071.052l0,.023A.075.075,0,0,1,386.379,372.914Z" transform="translate(-378 -369.304)"/>
  </g>
</svg>
