<svg xmlns="http://www.w3.org/2000/svg" width="32" height="32" viewBox="0 0 32 32">
  <g id="グループ_54" data-name="グループ 54" transform="translate(-24 -1023)">
    <g id="img00" transform="translate(24 1023)" fill="none" stroke="#707070" stroke-width="1">
      <circle cx="16" cy="16" r="16" stroke="none"/>
      <circle cx="16" cy="16" r="15.5" fill="none"/>
    </g>
    <g id="メガネをかけた女性のアイコン素材" transform="translate(32 1028)">
      <path id="パス_22" data-name="パス 22" d="M71.891,17.784a3.317,3.317,0,0,0-1.3-1.88,5.3,5.3,0,0,0-.877-.508c-.306-.144-.618-.264-.92-.376A3.506,3.506,0,0,1,68,12.811c.009-.7.064-.885.074-2.917a2.237,2.237,0,0,0,.461-.528A3.352,3.352,0,0,0,68.95,8.3a1.616,1.616,0,0,0,.04-.357,1.638,1.638,0,0,0-.155-.689,1.881,1.881,0,0,0-.253-.4c.051-.189.113-.442.168-.74a7.937,7.937,0,0,0,.14-1.429A5.3,5.3,0,0,0,68.8,3.665a3.752,3.752,0,0,0-.233-.756,2.8,2.8,0,0,0-.713-1,2.945,2.945,0,0,0-1.123-.61,4.112,4.112,0,0,0-.591-.584A3.17,3.17,0,0,0,65.064.151,3.814,3.814,0,0,0,63.952,0c-.2,0-.392.01-.588.028s-.337.036-.473.059a3.2,3.2,0,0,0-.535.136c-.163.056-.321.122-.526.2-.078.03-.181.076-.305.139a5.434,5.434,0,0,0-.793.493A5.1,5.1,0,0,0,59.406,2.5a4.494,4.494,0,0,0-.473,1.082,4.817,4.817,0,0,0-.183,1.335,5.8,5.8,0,0,0,.083.96c0,.024,0,.046,0,.069,0,.041.007.085.012.131.007.066.015.136.021.194,0,.029.005.055.006.075a.206.206,0,0,1,0,.025v.048l.082.365a1.907,1.907,0,0,0-.3.433,1.629,1.629,0,0,0-.177.731,1.581,1.581,0,0,0,.041.357h0a3.676,3.676,0,0,0,.253.759,2.349,2.349,0,0,0,.564.778c.02.018.041.035.061.052.011,2.035.066,2.218.074,2.92a3.5,3.5,0,0,1-.793,2.209c-.135.05-.272.1-.409.157a7.356,7.356,0,0,0-1.018.487,4.141,4.141,0,0,0-.705.515,3.247,3.247,0,0,0-.808,1.139,4.226,4.226,0,0,0-.3,1.662.721.721,0,0,0,.05.26.977.977,0,0,0,.118.211,1.612,1.612,0,0,0,.349.338,4.214,4.214,0,0,0,1.014.52,12.526,12.526,0,0,0,2.628.62,29.658,29.658,0,0,0,4.141.259,31.206,31.206,0,0,0,3.681-.2,17.083,17.083,0,0,0,2-.35,9.341,9.341,0,0,0,1.1-.334,5.319,5.319,0,0,0,.621-.278,3.287,3.287,0,0,0,.359-.22,1.646,1.646,0,0,0,.38-.365.931.931,0,0,0,.116-.215.71.71,0,0,0,.046-.247A4.645,4.645,0,0,0,71.891,17.784ZM61.113,4.835c1.867.415,5.131-1.57,5.131-1.57A3.445,3.445,0,0,0,66.906,5a4.667,4.667,0,0,1,.6,1.323c-.041-.076-.136-.1-.279-.122A7.647,7.647,0,0,0,65.9,6.157c-1.591.078-1.474.222-2.1.222s-.507-.145-2.1-.222a7.652,7.652,0,0,0-1.331.045.985.985,0,0,0-.143.028A7.373,7.373,0,0,0,61.113,4.835Zm6.089,2.5c0,.009-.006.921-.627,1.232a1.67,1.67,0,0,1-.744.166,1.471,1.471,0,0,1-.751-.186.979.979,0,0,1-.459-.59c-.018-.061-.034-.121-.05-.179-.049-.178-.181-.669.1-.887a2.728,2.728,0,0,1,1.28-.23,2.027,2.027,0,0,1,1.133.219A.611.611,0,0,1,67.2,7.331Zm-4.178.443c-.017.058-.033.118-.051.179a.982.982,0,0,1-.458.59,1.476,1.476,0,0,1-.751.186,1.675,1.675,0,0,1-.745-.166c-.621-.312-.627-1.223-.627-1.232a.62.62,0,0,1,.121-.455,2.028,2.028,0,0,1,1.133-.219,2.724,2.724,0,0,1,1.279.23C63.206,7.1,63.073,7.6,63.025,7.774ZM63.014,18.1l-2.443-3.123a2.984,2.984,0,0,0,.362-.245,2.148,2.148,0,0,0,.331-.328l1.777.825-.379.631.587.622Zm1.615.113-.251-1.731.587-.622-.381-.635,1.607-.844a1.9,1.9,0,0,0,.142.163,2.634,2.634,0,0,0,.54.417Zm3.043-8.885a1.373,1.373,0,0,1-.453.269l-.153.056-.054.153a8.413,8.413,0,0,1-.49,1.146,3.249,3.249,0,0,1-.491.705l-.067.07-.02.094A5.314,5.314,0,0,0,65.794,13a4.149,4.149,0,0,0,.023.438,1.9,1.9,0,0,0,.12.5c0,.008.006.014.009.021l-2.1,1.1-2.329-1.08a1.878,1.878,0,0,0,.141-.549h0A4.124,4.124,0,0,0,61.679,13a5.282,5.282,0,0,0-.15-1.179l-.02-.093-.067-.07a3.256,3.256,0,0,1-.491-.706A8.366,8.366,0,0,1,60.462,9.8l-.054-.153-.153-.056a1.492,1.492,0,0,1-.307-.156A1.456,1.456,0,0,1,59.527,9a2.679,2.679,0,0,1-.33-.847h0a.913.913,0,0,1,.08-.627,1.245,1.245,0,0,1,.228-.312,5.083,5.083,0,0,0,.338.478c.091.091.136,0,.144-.167A1.725,1.725,0,0,0,60.8,8.835a1.8,1.8,0,0,0,2.509-.711c.193-.447.2-.883.484-.883s.292.436.484.883a1.8,1.8,0,0,0,2.51.711,1.9,1.9,0,0,0,.842-1.623c0-.039.037-.07.092-.076.07.3.107.5.107.5s.08-.152.2-.356a1.192,1.192,0,0,1,.175.269.925.925,0,0,1,.091.4.948.948,0,0,1-.023.2,3.079,3.079,0,0,1-.2.619A1.682,1.682,0,0,1,67.672,9.324Z" transform="translate(-55.437 0)" fill="#4b4b4b"/>
    </g>
  </g>
</svg>
